<!-- Generator: Adobe Illustrator 22.0.1, SVG Export Plug-In  -->
<svg version="1.1"
	 xmlns="http://www.w3.org/2000/svg" xmlns:xlink="http://www.w3.org/1999/xlink" xmlns:a="http://ns.adobe.com/AdobeSVGViewerExtensions/3.0/"
	 x="0px" y="0px" width="237.223px" height="210.473px" viewBox="0 0 237.223 210.473"
	 style="enable-background:new 0 0 237.223 210.473;" xml:space="preserve">
<style type="text/css">
	.st0{opacity:0.8;fill:#FFFFFF;stroke:#000000;stroke-miterlimit:10;}
	.st1{fill:#FFFFFF;stroke:#000000;stroke-miterlimit:10;}
	.st2{opacity:0.6;}
	.st3{opacity:0.8;fill:#FFFFFF;stroke:#000000;stroke-width:1.0008;stroke-miterlimit:10;}
</style>
<defs>
</defs>
<g>
	<g>
		<polygon class="st0" points="46.955,44.957 69.811,99.793 226.723,100.695 226.723,10.695 		"/>
		<polygon class="st0" points="36.955,44.957 59.811,99.793 1.194,189.973 		"/>
		<polygon class="st1" points="69.811,119.793 226.723,120.695 175.321,209.973 11.194,209.973 		"/>
		<g class="st2">
			<polygon class="st1" points="69.811,109.793 55.157,132.338 40.503,154.883 11.194,199.973 93.258,199.973 175.321,199.973 
				201.022,155.334 226.723,110.695 148.267,110.244 			"/>
			<polygon class="st1" points="146.758,105.296 69.872,105.508 54.992,126.862 40.111,148.215 14.224,191.168 93.58,192.206 
				174.526,193.925 200.227,149.286 225.928,104.648 186.343,104.972 			"/>
			<polygon class="st1" points="145.249,100.798 69.933,101.674 54.826,121.836 39.72,141.998 17.254,182.814 93.903,184.89 
				173.731,188.328 199.432,143.69 225.134,99.051 185.191,99.924 			"/>
			<polygon class="st1" points="143.74,96.3 69.994,97.839 54.661,116.81 39.328,135.781 20.284,174.46 94.226,177.574 
				172.937,182.732 198.638,138.093 224.339,93.454 184.039,94.877 			"/>
			<polygon class="st1" points="142.231,91.802 70.055,94.005 54.496,111.784 38.936,129.563 23.314,166.106 94.548,170.258 
				172.142,177.135 197.843,132.496 223.544,87.857 182.887,89.829 			"/>
			<polygon class="st1" points="140.722,87.304 70.116,90.17 54.33,106.758 38.545,123.346 26.343,157.752 94.871,162.942 
				171.347,171.538 197.048,126.899 222.749,82.26 181.736,84.782 			"/>
			<polygon class="st1" points="139.213,82.806 70.177,86.336 54.165,101.732 38.153,117.129 29.373,149.398 95.194,155.626 
				170.552,165.941 196.253,121.302 221.954,76.663 180.584,79.735 			"/>
			<polygon class="st1" points="137.704,78.308 70.238,82.501 54,96.707 37.762,110.912 32.403,141.044 95.517,148.31 
				169.757,160.344 195.459,115.705 221.16,71.067 179.432,74.687 			"/>
			<polygon class="st1" points="136.195,73.81 70.299,78.667 53.835,91.681 37.37,104.695 35.433,132.69 95.839,140.993 
				168.963,154.747 194.664,110.109 220.365,65.47 178.28,69.64 			"/>
			<polygon class="st1" points="135.428,69.312 71.102,74.832 54.411,86.655 37.721,98.477 39.205,124.336 96.904,133.677 
				168.91,149.151 194.611,104.512 220.312,59.873 177.87,64.592 			"/>
			<polygon class="st1" points="135.629,64.814 72.874,70.998 55.957,81.629 39.04,92.26 43.945,115.982 98.937,126.361 
				169.826,143.554 195.527,98.915 221.228,54.276 178.429,59.545 			"/>
			<polygon class="st1" points="135.831,60.316 74.645,67.164 57.502,76.603 40.359,86.043 48.686,107.628 100.971,119.045 
				170.742,137.957 196.443,93.318 222.144,48.679 178.987,54.498 			"/>
			<polygon class="st1" points="136.032,55.818 76.417,63.329 59.048,71.577 41.678,79.826 53.426,99.274 103.004,111.729 
				171.657,132.36 197.359,87.721 223.06,43.083 179.546,49.45 			"/>
			<polygon class="st1" points="136.234,51.32 78.189,59.495 60.593,66.552 42.997,73.609 58.167,90.92 105.038,104.413 
				172.573,126.763 198.274,82.125 223.976,37.486 180.105,44.403 			"/>
			<polygon class="st1" points="136.436,46.822 79.96,55.66 62.138,61.526 44.316,67.391 62.907,82.565 107.071,97.097 
				173.489,121.167 199.19,76.528 224.891,31.889 180.664,39.355 			"/>
			<polygon class="st1" points="136.637,42.324 81.732,51.826 63.684,56.5 45.636,61.174 67.648,74.211 109.104,89.781 
				174.405,115.57 200.106,70.931 225.807,26.292 181.222,34.308 			"/>
			<polygon class="st1" points="46.955,54.957 111.138,82.465 175.321,109.973 201.022,65.334 226.723,20.695 181.781,29.261 
				136.839,37.826 			"/>
		</g>
		<polygon class="st0" points="185.321,198.973 185.321,108.973 236.723,19.695 236.723,109.695 		"/>
		<polygon class="st3" points="1.194,209.973 36.955,64.957 165.321,119.973 165.321,209.973 		"/>
		<polygon class="st0" points="46.955,34.957 175.321,89.973 226.723,0.695 		"/>
	</g>
</g>
</svg>