<!-- Generator: Adobe Illustrator 22.0.1, SVG Export Plug-In  -->
<svg version="1.1"
	 xmlns="http://www.w3.org/2000/svg" xmlns:xlink="http://www.w3.org/1999/xlink" xmlns:a="http://ns.adobe.com/AdobeSVGViewerExtensions/3.0/"
	 x="0px" y="0px" width="465.027px" height="307.166px" viewBox="0 0 465.027 307.166"
	 style="enable-background:new 0 0 465.027 307.166;" xml:space="preserve">
<style type="text/css">
	.st0{clip-path:url(#SVGID_2_);}
	.st1{opacity:0.4;fill:#525352;}
	.st2{fill:#525352;}
	.st3{opacity:0.4;}
	.st4{fill:#C22B2B;stroke:#FFFFFF;stroke-width:1.0157;stroke-miterlimit:10;}
	.st5{opacity:0.4;fill:#C22B2B;stroke:#FFFFFF;stroke-width:1.0157;stroke-miterlimit:10;}
	.st6{clip-path:url(#SVGID_4_);}
</style>
<defs>
</defs>
<g>
	<defs>
		<path id="SVGID_1_" d="M465.027,293.031l-240.155-12.545l-30.501-8.421l-3.585,1.314c-1.574,0.577-3.208,0.992-4.875,1.174
			c-13.594,1.483-27.359,0.11-40.408-4.04l-58.883-18.729c-6.12-1.946-11.807-4.846-16.885-8.533
			c-12.303-8.932-20.046-22.838-21.819-37.937l-0.631-5.378L0,224.232V0h465.027V293.031z"/>
	</defs>
	<clipPath id="SVGID_2_">
		<use xlink:href="#SVGID_1_"  style="overflow:visible;"/>
	</clipPath>
	<g class="st0">
		<g>
			<path class="st1" d="M390.745,212.477c-0.16,0.42-0.31,0.73-0.45,0.94L390.745,212.477z"/>
			<g>
				<path class="st2" d="M456.59,71.123c-0.05-0.21-0.11-0.43-0.17-0.64c0-0.03-0.01-0.06-0.02-0.09c-0.07-0.33-0.17-0.67-0.3-1.01
					c-0.08-0.24-0.17-0.47-0.28-0.71c-0.52-1.18-1.32-2.41-2.53-3.65c-0.12-0.13-0.25-0.26-0.39-0.39c-0.06-0.06-0.13-0.12-0.2-0.19
					c0,0,0,0-0.01-0.01c-0.12-0.12-0.23-0.24-0.35-0.35c-0.1-0.11-0.2-0.21-0.31-0.31c-0.1-0.11-0.21-0.21-0.32-0.31
					c-1.05-0.99-1.94-1.66-2.28-1.91c-0.07-0.05-0.11-0.08-0.14-0.1c-0.01,0-0.02-0.01-0.02-0.01s-0.01,0-0.01-0.01
					c-0.58-0.29-1.15-0.57-1.72-0.84c-0.04-0.02-0.08-0.03-0.12-0.06c-1.67-0.79-3.29-1.48-4.87-2.07c-0.54-0.21-1.08-0.4-1.6-0.58
					c-0.53-0.19-1.05-0.36-1.57-0.52c-0.35-0.11-0.69-0.22-1.03-0.32c-0.4-0.11-0.79-0.22-1.18-0.33c-0.06-0.02-0.11-0.04-0.17-0.04
					c-0.51-0.14-1.01-0.26-1.51-0.38c-0.13-0.03-0.27-0.06-0.41-0.1c-0.07-0.02-0.15-0.04-0.22-0.05c-0.07-0.01-0.14-0.03-0.21-0.05
					c-0.15-0.03-0.3-0.06-0.45-0.1c-0.16-0.04-0.32-0.07-0.47-0.09c-0.11-0.03-0.22-0.05-0.33-0.07c-0.22-0.04-0.44-0.08-0.67-0.12
					c-0.18-0.04-0.36-0.07-0.54-0.1c-0.07-0.01-0.13-0.02-0.2-0.03c-0.11-0.02-0.23-0.04-0.35-0.05c-0.18-0.03-0.37-0.05-0.56-0.08
					c-0.58-0.08-1.19-0.15-1.82-0.21c-0.2-0.01-0.41-0.03-0.63-0.05c-0.11-0.01-0.22-0.02-0.32-0.02c-0.33-0.03-0.66-0.05-0.98-0.06
					c-3.88-0.19-7.34,0.19-10.38,0.91c-0.84,0.2-1.64,0.42-2.4,0.67c-0.39,0.12-0.77,0.25-1.14,0.38c-1.86,0.65-3.51,1.42-4.96,2.23
					c0,0,0,0.01-0.01,0c-5.22,2.88-7.83,6.18-7.83,6.18c-0.35,6.56-0.35,12.28-0.16,17.18c0.01,0.27,0.02,0.55,0.03,0.81
					c0.02,0.57,0.05,1.12,0.08,1.67c0.08,1.63,0.19,3.16,0.31,4.58c-0.12-0.06-0.24-0.12-0.35-0.18c-0.96-0.51-1.61-0.86-1.81-0.97
					c-0.76-0.42-1.32-0.43-1.68-0.35c-0.06,0.02-0.11,0.03-0.15,0.05c-0.05,0.01-0.09,0.03-0.13,0.05h-0.01
					c-0.14,0.06-0.22,0.13-0.22,0.13l-5.32,1.21c-1.16,0.04-1.97,0.23-2.54,0.43c-0.94,0.34-1.19,0.77-1.19,0.77l0.01,0.08
					c-0.22,0.11-0.41,0.25-0.58,0.4c-0.07,0.06-0.13,0.12-0.19,0.18c-0.53,0.56-0.78,1.2-0.78,1.2c-2.54,5.79-4.73,11.01-6.64,15.7
					c-0.19,0.47-0.37,0.93-0.56,1.39c-0.4,0.99-0.78,1.96-1.16,2.91c-1.35,3.42-2.53,6.53-3.54,9.35c-0.26,0.72-0.51,1.43-0.76,2.11
					c-0.49,1.37-0.93,2.67-1.34,3.9c-0.2,0.62-0.4,1.22-0.59,1.8c-0.88,2.71-1.58,5.06-2.12,7.1l-10.17-2.71h-0.02
					c-0.26-0.56-0.45-0.89-0.45-0.89s0,0-0.01-0.01c-0.03-0.01-0.08-0.03-0.14-0.05c-0.14-0.05-0.35-0.09-0.55-0.04
					c-0.07,0.02-0.14,0.05-0.2,0.09c-0.05,0.03-0.09,0.07-0.12,0.12c-0.04,0.04-0.07,0.09-0.1,0.14c-0.03,0.06-0.06,0.13-0.08,0.2
					l-12-3.2h-0.01l12.73-48.32c0.52-1.62-0.04-2.78-0.82-3.55c-0.09-0.1-0.19-0.19-0.29-0.27c-0.2-0.16-0.4-0.3-0.6-0.43
					c-0.69-0.44-1.31-0.63-1.31-0.63l-21.41-4.84l-73.19-16.57c-0.14-0.01-0.28-0.01-0.41-0.01c-0.18,0-0.35,0.01-0.51,0.03h-0.01
					l4.67-32.8l-54.9-11.05h-0.01l-1.15,1l-3.43,35.27l-5.95-1.25c-0.16,0.12-0.31,0.23-0.46,0.36c-0.15,0.12-0.3,0.23-0.45,0.35
					c-1.02,0.81-1.86,1.58-2.55,2.29c-0.1,0.1-0.2,0.2-0.29,0.3c-0.19,0.2-0.36,0.39-0.52,0.58c-0.09,0.09-0.16,0.19-0.24,0.28
					c-0.08,0.09-0.16,0.19-0.24,0.28c-0.13,0.17-0.25,0.33-0.37,0.48c-0.12,0.16-0.23,0.31-0.33,0.46c-0.11,0.14-0.2,0.28-0.28,0.41
					c-0.02,0.02-0.03,0.04-0.04,0.06c-0.15,0.23-0.27,0.43-0.36,0.6c-0.02,0.04-0.05,0.08-0.07,0.12c-0.24-0.55-0.5-1.11-0.76-1.66
					c-0.26-0.56-0.53-1.11-0.81-1.67s-0.57-1.12-0.87-1.68c-0.3-0.56-0.6-1.12-0.92-1.68c-0.31-0.55-0.64-1.11-0.96-1.66
					c-0.01-0.02-0.02-0.04-0.04-0.06c-0.67-1.12-1.38-2.24-2.13-3.36c-0.38-0.56-0.77-1.13-1.17-1.69c0,0-0.16-0.33-0.5-0.89
					c-0.01-0.02-0.02-0.05-0.04-0.07c-0.28-0.43-0.65-0.98-1.12-1.61c0-0.01-0.01-0.01-0.02-0.02c-0.13-0.17-0.27-0.34-0.42-0.52
					c-0.39-0.48-0.84-0.98-1.34-1.51c-0.26-0.26-0.53-0.52-0.81-0.78c-0.43-0.4-0.89-0.8-1.39-1.2v-0.01l-1.79-21.91
					c0.66-2.08-4.07-1.81-4.07-1.81h-0.01l-131.28,7.97c0,0-1.05-0.17-1.54,0.56v0.01c-0.06,0.09-0.11,0.2-0.15,0.32
					c-0.1,0.27-0.13,0.63-0.07,1.09c0,0,0,0.02,0.01,0.07c0,0.02,0.01,0.05,0.01,0.09c0.01,0.08,0.03,0.18,0.05,0.32
					c0.02,0.16,0.04,0.35,0.08,0.59c0.09,0.7,0.23,1.75,0.42,3.09c0.02,0.17,0.04,0.34,0.07,0.51c0.03,0.27,0.07,0.56,0.11,0.85
					c0.04,0.27,0.08,0.55,0.12,0.83c0.33,2.44,0.74,5.48,1.22,8.96c0.06,0.41,0.11,0.83,0.17,1.25c0.04,0.26,0.07,0.53,0.11,0.79
					c0.34,2.54,0.72,5.27,1.11,8.15c0.06,0.43,0.12,0.86,0.18,1.29c0.07,0.51,0.14,1.02,0.21,1.54c0.14,1.03,0.28,2.08,0.43,3.14
					c0.04,0.32,0.09,0.64,0.13,0.96c0.04,0.32,0.09,0.64,0.13,0.96c0.09,0.64,0.18,1.29,0.27,1.95c0.09,0.65,0.18,1.31,0.27,1.97
					c0.08,0.58,0.16,1.15,0.24,1.73c0.55,4.07,1.13,8.24,1.7,12.39c0.04,0.34,0.09,0.68,0.14,1.02c0.06,0.46,0.13,0.92,0.19,1.38
					c0.12,0.89,0.24,1.78,0.36,2.67c0.17,1.21,0.34,2.41,0.5,3.61c0.11,0.75,0.21,1.5,0.31,2.24c0.01,0.05,0.02,0.1,0.02,0.15
					c0.1,0.66,0.19,1.31,0.27,1.96c0.01,0.04,0.02,0.07,0.02,0.11c0.05,0.37,0.1,0.73,0.15,1.1c0.1,0.73,0.21,1.46,0.3,2.18
					c0.69,5.03,1.35,9.78,1.95,13.99c0.1,0.72,0.2,1.42,0.29,2.1c0.64,4.58,1.18,8.42,1.58,11.13l-33.41,32.29l29.71,9.73
					c0,0,0,0,0,0.01c-0.02,0.11-0.04,0.21-0.06,0.32c-0.15,0.81-0.31,1.65-0.46,2.51c-0.21,1.2-0.42,2.43-0.62,3.69
					c-0.11,0.61-0.21,1.24-0.3,1.87c-0.1,0.63-0.19,1.26-0.29,1.9c-0.05,0.36-0.1,0.72-0.16,1.08c-0.09,0.6-0.17,1.21-0.25,1.82
					c0,0.07-0.01,0.13-0.03,0.2c-0.08,0.58-0.15,1.16-0.22,1.75c-0.04,0.33-0.08,0.66-0.12,0.99c-0.08,0.65-0.15,1.31-0.22,1.96
					c-0.04,0.33-0.07,0.66-0.11,0.99c-0.07,0.66-0.14,1.32-0.19,1.97c-0.16,1.64-0.28,3.26-0.36,4.86c-0.06,0.97-0.1,1.92-0.12,2.86
					c-0.08,2.54-0.06,4.99,0.09,7.27c0.16,2.56,0.48,4.92,0.99,6.98c0,0-0.96,16.27-11.11,44.04c0,0-1.53,13.21-1.53,28.53
					c0,0-1.27,6.02-2.07,11.01c-0.07,0.44-0.14,0.88-0.2,1.3c-0.28,1.97-0.46,3.65-0.41,4.55c0,0-9.96,13.02-10.15,16.08
					c-0.01,0.22,0.88,0.41,2.55,0.56c0.35,0.03,0.74,0.06,1.17,0.09c0.25,0.01,0.51,0.03,0.78,0.04c0.45,0.03,0.94,0.05,1.45,0.08
					h0.07c0.53,0.02,1.09,0.05,1.68,0.07c0.64,0.02,1.31,0.04,2.02,0.06c0.65,0.02,1.33,0.03,2.03,0.05h0.1
					c1.08,0.02,2.23,0.04,3.44,0.06h0.06c10.85,0.15,26.47,0.06,43.65-0.15c0.01,0.01,0.03,0.01,0.05,0
					c4.7-0.06,9.52-0.13,14.38-0.2c0.02,0.01,0.03,0.01,0.05,0c2.92-0.05,5.85-0.09,8.79-0.14c1.99-0.03,3.97-0.06,5.95-0.1
					c2.94-0.06,5.88-0.11,8.79-0.16h0.04c1.94-0.04,3.87-0.07,5.79-0.11h0.03c1.92-0.04,3.83-0.07,5.72-0.11
					c33.27-0.65,61.27-1.38,61.27-1.38c0.23-0.36,4.3-6.49,3.46-15.87c-0.11-1.17-0.29-2.39-0.56-3.66
					c-0.07-0.32-0.15-0.64-0.23-0.96l-0.19-11.69l6.32-1.34c0,0,0,0,0.01,0.01c0,0,0,0,0.01,0c0.1,0.02,0.54,0.13,1.2,0.29
					c0.05,0.01,0.09,0.02,0.14,0.03c0.35,0.08,0.76,0.18,1.21,0.28c0.19,0.05,0.38,0.09,0.58,0.13c0.21,0.05,0.43,0.1,0.65,0.15
					c0.64,0.15,1.31,0.3,2,0.44c0.4,0.08,0.8,0.17,1.2,0.25c0.37,0.08,0.73,0.15,1.09,0.22c0.24,0.04,0.47,0.09,0.7,0.13
					c0.05,0.02,0.11,0.03,0.16,0.03c0.82,0.15,1.57,0.27,2.16,0.34c1.01,0.12,2.48,0.54,4.02,1.07c1.54,0.52,3.14,1.14,4.44,1.66
					c0.25,0.1,0.5,0.2,0.72,0.29c0.12,0.05,0.23,0.1,0.35,0.15c0.96,0.39,1.58,0.66,1.58,0.66s24.72,1.28,33.29-7.55
					c1.38-1.41,2.34-3.09,2.71-5.08v-0.01c0,0,0,0,0.01,0c0.13-0.3,2.38-5.4,4.52-10.82c0.13-0.32,0.26-0.65,0.39-0.97
					c0.2-0.5,0.39-1,0.57-1.49c0.12-0.33,0.24-0.65,0.37-0.97c0.06-0.17,0.13-0.33,0.18-0.49c0.23-0.64,0.46-1.27,0.68-1.88v-0.01
					c0.1-0.3,0.2-0.6,0.31-0.89v-0.01c0.14-0.44,0.28-0.87,0.42-1.28c0,0,0,0,0-0.01c0.13-0.41,0.25-0.8,0.36-1.17
					c0-0.01,0-0.01,0-0.01c0.07-0.25,0.13-0.49,0.2-0.72v-0.01c0.09-0.34,0.16-0.67,0.23-0.96c0.03-0.11,0.05-0.21,0.06-0.31
					c0.05-0.28,0.08-0.53,0.11-0.75c0.01-0.01,0-0.01,0-0.01c0-0.08,0.01-0.15,0.01-0.22c0,0,0.47-0.18,1.21-0.54c0,0,0,0.01,0.01,0
					c1.01-0.51,2.54-1.36,4.08-2.57c0.56-0.45,1.12-0.94,1.66-1.48c1.2-1.22,2.3-2.69,3-4.41c0,0,0.12-0.21,0.34-0.61h0.01
					l106.12,34.76l9.64-67.79c0.02-0.07,0.03-0.14,0.03-0.22l0.11-0.75l0.31-2.23l0.01-0.02l0.01-0.06l0.05-0.15l0.02-0.06
					l5.97-18.26c0.2-0.48,0.41-1.02,0.62-1.6c0.02-0.04,0.03-0.08,0.04-0.12c0.14-0.41,0.28-0.84,0.43-1.28
					c0.08-0.25,0.16-0.51,0.24-0.77c0.07-0.26,0.15-0.52,0.23-0.78c0.1-0.31,0.19-0.62,0.27-0.94c0.11-0.39,0.22-0.8,0.33-1.21
					c0.32-1.19,0.63-2.45,0.95-3.73c0.1-0.42,0.2-0.84,0.3-1.26c0.08-0.3,0.15-0.6,0.21-0.91c0.12-0.54,0.25-1.09,0.38-1.64
					c0.18-0.85,0.37-1.7,0.55-2.54c0.09-0.41,0.17-0.82,0.26-1.22c0.05-0.21,0.09-0.43,0.14-0.65c0.04-0.22,0.09-0.44,0.13-0.66
					l0.01-0.01c0,0,0,0,0-0.01l0.22-0.24c0.59-0.34,1.02-0.7,1.33-1.04c0.1-0.12,0.19-0.23,0.27-0.34c0.73-1.09,0.33-2.08,0.01-2.58
					c-0.09-0.15-0.18-0.26-0.22-0.31c-0.02-0.03-0.03-0.03-0.03-0.03c-0.1-0.44-0.08-1.09,0.03-1.9c0.04-0.3,0.1-0.64,0.17-0.99
					c0.08-0.35,0.16-0.72,0.25-1.11c0.04-0.19,0.09-0.39,0.15-0.6c0.1-0.41,0.22-0.84,0.35-1.29c0.11-0.36,0.22-0.73,0.33-1.12
					c0.75-2.45,1.76-5.33,2.91-8.37c0.25-0.65,0.5-1.31,0.75-1.98c0.31-0.82,0.63-1.65,0.97-2.48c0.05-0.12,0.1-0.24,0.14-0.36
					c0.37-0.95,0.75-1.9,1.14-2.84c0.06-0.13,0.11-0.27,0.17-0.41c0.11-0.3,0.23-0.59,0.36-0.89c0.09-0.2,0.17-0.4,0.24-0.59
					c0.12-0.31,0.25-0.61,0.37-0.92c0.01,0,0.01,0,0.01,0c0.01,0,0-0.01,0-0.01c0.14,0.05,0.27,0.09,0.39,0.12
					c0.25,0.07,0.49,0.11,0.71,0.13c0.06,0.01,0.11,0.01,0.16,0.01c0.11,0,0.22,0,0.32-0.01c0.04,0.01,0.07,0,0.11,0h0.01
					c1.22-0.09,1.83-0.81,1.91-0.9c0.01-0.01,0.01-0.01,0.01-0.01l0.48-3.79c0.3-0.07,0.6-0.15,0.91-0.26
					c0.16-0.05,0.32-0.11,0.48-0.17c0.6-0.23,1.21-0.51,1.84-0.84c0.27-0.14,0.54-0.29,0.82-0.45c0.56-0.32,1.12-0.67,1.69-1.05
					c0.25-0.17,0.51-0.34,0.76-0.52c0.07-0.03,0.14-0.08,0.21-0.13c0.01-0.01,0.02-0.02,0.03-0.02c0.05-0.04,0.09-0.07,0.13-0.1
					c0.19-0.11,0.37-0.24,0.56-0.37c0.28-0.19,0.55-0.39,0.83-0.59c0.3-0.2,0.59-0.42,0.87-0.64c0.53-0.41,1.06-0.83,1.58-1.27
					c2.67-2.22,5.18-4.79,7.5-7.53c0.37-0.44,0.74-0.88,1.1-1.33c1.37-1.69,2.68-3.43,3.9-5.18c0.17-0.23,0.33-0.46,0.48-0.69
					c1.1-1.58,2.13-3.17,3.09-4.73c0.18-0.28,0.35-0.57,0.52-0.85c0.18-0.28,0.35-0.56,0.51-0.84c0.16-0.28,0.33-0.55,0.49-0.83
					c0.48-0.82,0.94-1.62,1.39-2.41c0.17-0.3,0.33-0.59,0.49-0.88c0.27-0.5,0.54-1,0.8-1.48c0.05-0.08,0.09-0.16,0.13-0.24
					c0.22-0.43,0.44-0.84,0.65-1.24c0.13-0.24,0.25-0.49,0.37-0.72c0.72-1.41,1.36-2.72,1.91-3.87c0.03-0.05,0.05-0.09,0.07-0.14
					c1.5-3.19,2.3-5.21,2.3-5.21C456.85,75.643,457.08,73.283,456.59,71.123z M248.42,104.843l-3.91-1.05
					c0.28-1.37,0.42-2.39,0.42-2.39c-0.89-2.09-2.98-2.83-2.98-2.83c-4.91-0.67-17.64-5.06-17.64-5.06c-0.36,0.17-0.99,2-1.69,4.46
					l-2.9-0.77c-0.06-3.58,0.23-8.99,0.64-14.71l30.81,7.24L248.42,104.843z M192.58,53.793c0.03,0.06,0.05,0.12,0.08,0.18
					l-0.24,0.14C192.45,54.043,192.5,53.933,192.58,53.793z M390.4,213.233c-0.03,0.06-0.06,0.1-0.09,0.15l0.37-0.77
					c-0.06,0.15-0.11,0.29-0.17,0.41C390.47,213.103,390.43,213.173,390.4,213.233z"/>
			</g>
			<g class="st3">
				<path class="st2" d="M192.665,53.977l-0.24,0.14c0.03-0.07,0.08-0.18,0.16-0.32C192.615,53.857,192.635,53.917,192.665,53.977z"
					/>
			</g>
			<polygon class="st2" points="445.595,133.277 452.715,134.917 452.715,172.127 427.235,234.927 419.825,231.947 422.805,191.847 
							"/>
			<path class="st1" d="M192.665,53.977l-0.24,0.14c0.03-0.07,0.08-0.18,0.16-0.32C192.615,53.857,192.635,53.917,192.665,53.977z"
				/>
			<g class="st3">
				<path class="st2" d="M390.745,212.477c-0.16,0.42-0.31,0.73-0.45,0.94L390.745,212.477z"/>
				<path class="st2" d="M393.785,195.157c-0.14,0.92-0.28,1.85-0.43,2.79l0.37-2.6v-0.01L393.785,195.157z"/>
			</g>
			<g class="st3">
				<path class="st2" d="M418.395,126.457c-0.05,0.1-0.56,0.9-1.91,0.9C417.705,127.267,418.315,126.547,418.395,126.457z"/>
			</g>
		</g>
		<g>
			<g class="st3">
				<polygon class="st4" points="209.315,12.195 264.228,23.247 254.72,90.072 201.844,78.146 208.166,13.2 				"/>
				<polygon class="st4" points="262.6,24.453 258.34,56.353 253.86,89.883 253.8,90.353 251.17,89.733 220.36,82.493 
					216.66,81.623 214.51,81.123 201.84,78.143 204.09,55.023 204.31,52.793 204.73,48.463 208.17,13.203 				"/>
				<polygon class="st4" points="211.467,17.765 258.494,27.146 250.167,85.196 205.721,74.994 				"/>
				<polygon class="st4" points="217.214,25.387 252.161,32.541 245.828,78.864 212.406,71.358 				"/>
			</g>
			<path class="st5" d="M400.82,145.403l-2.81,19.79l-0.3,2.08l-2.23,15.71l-1.75,12.32l-0.01,0.06l-0.32,2.25l-0.11,0.75
				l-0.03,0.22l-9.63,67.79h-0.01l-106.12-34.76h-0.01l-227.7-74.57l-29.72-9.73l0.01-0.01l33.42-32.29l6.46-6.23l31.41-30.35
				l12.5-12.07l54.43,14.49l16.67,4.44l1.43,0.37l7.29,1.94l3.73,1l2.42,0.64l8.77,2.34l9.11,2.42l5.16,1.37c0,0.01,0,0.01,0,0.01
				l2.24,0.59l4.6,1.23l2.9,0.77l21.89,5.82l3.91,1.05l4.84,1.28l86.45,23.01l5.67,1.51l12,3.2l1.67,0.44l10.18,2.71l1.87,0.5
				l9.74,2.59l8.43,2.25l4.53,1.2l4.52,1.21l2.22,0.58L400.82,145.403z"/>
			<g class="st3">
				<path class="st4" d="M387.475,90.869c0,0,0.63-1.089,3.724-1.203l5.329-1.203c0,0,0.745-0.688,2.177,0.115
					s25.409,13.295,25.409,13.295s2.492-0.113-2.152,8.609c0,0-16.765,37.042-15.519,42.479c0,0,2.152,2.266-1.359,4.305
					l-8.496,9.515L387.475,90.869z"/>
				<path class="st4" d="M385.934,92.727c0,0,1.31-3.402,4.42-1.385l26.223,13.364c0,0,3.11,0.84,0.925,4.034
					c-2.185,3.194-26.812,51.522-19.668,55.809c0,0,0,3.194-3.026,1.681s-27.064-16.222-27.064-16.222
					S363.061,144.969,385.934,92.727z"/>
				<path class="st4" d="M374.07,136.117l20.262,11.884c0,0,2.436,1.426,0.891,3.565c-1.545,2.139-0.238-0.059-0.238-0.059
					s-0.416,2.02-2.615,0.238l-19.965-12.181c0,0-0.64-0.232-1.01-0.832c-0.397-0.641-0.502-1.672,0.297-2.317
					C371.693,136.414,372.644,134.929,374.07,136.117z"/>
				<path class="st4" d="M404.537,130.039l-6.572,15.552c0,0-0.741,1.851-1.944,0.648l-22.68-13.145c0,0-0.648,0.185,0.37-3.055
					c1.018-3.24,13.7-35.084,13.7-35.084s0.463-3.147,2.777-1.759l22.309,12.127c0,0,2.314,0.833,1.018,2.592L404.537,130.039z"/>
			</g>
			<g class="st3">
				<polygon class="st4" points="445.6,133.281 452.716,134.916 452.716,172.133 427.231,234.932 419.826,231.95 422.808,191.848 
									"/>
				<polygon class="st4" points="426.077,193.194 424.731,216.371 442.522,172.037 443.501,148.235 				"/>
				<polygon class="st4" points="443.411,142.464 443.501,148.235 426.077,193.194 424.731,216.371 422.082,223.461 
					424.045,192.318 				"/>
			</g>
			<path class="st5" d="M342.331,145.585l-0.418,2.275l-0.093,1.578l5.917,1.235l-0.022-0.817l2.182,0.371l0.186-0.418
				c0,0,4.596,1.161,8.727-3.946c4.131-5.106-0.222-12.476-0.222-12.476s-1.434-0.749-1.274,1.417c0,0,4.201,5.395,0.096,10.162
				c0,0-1.599,3.42-7.002,3.379l-0.101-0.607l-1.983-0.162l0.02-0.749L342.331,145.585z"/>
			<path class="st5" d="M239.759,126.595l-0.217-0.487l-0.704-0.108l-0.433-0.433l-4.492-1.191l-0.595,0.271
				c0,0-2.598-0.92-4.655,1.299c0,0-0.325,0.433-0.108,0.65c0,0-1.083,5.196,6.333,8.335l1.028-0.217l-0.866-0.379
				c0,0-6.495-3.248-5.792-7.307l0.218-0.16l0.361,0.406c0,0,1.918-1.354,3.159-0.406l0.158,0.541l5.347,1.737L239.759,126.595z"/>
			<path class="st5" d="M244.162,119.401l-2.897-1.005l-0.748,1.047c0,0-6.879-1.296-9.421-4.486
				c-2.542-3.19-2.642-2.393-2.642-2.393s0.648,4.586,11.265,7.975l-0.05,0.698l0.199,0.798l2.343,0.648L244.162,119.401z"/>
			<ellipse class="st5" cx="241.932" cy="119.967" rx="0.476" ry="0.373"/>
			<g class="st3">
				<path class="st4" d="M40.372,19.942c0,0,13.162,96.667,13.806,99.456c0.644,2.789,3.754,2.253,3.754,2.253l127.37-14.295
					l-7.811-95.557c0.659-2.071-4.073-1.801-4.073-1.801L42.14,17.969C42.14,17.969,40.067,17.628,40.372,19.942z"/>
				<polygon class="st4" points="48.67,24.67 170.255,16.371 177.725,100.609 60.704,114.303 				"/>
			</g>
			<polygon class="st5" points="204.421,103.73 200.019,101.872 196.4,104.904 196.498,109.404 200.802,111.164 204.518,108.817 			
				"/>
			<polygon class="st5" points="193.955,117.815 193.759,122.902 199.823,123.293 200.41,118.598 			"/>
			<polygon class="st5" points="193.661,110.871 195.422,114.49 200.606,113.805 198.845,109.99 			"/>
			<polygon class="st5" points="200.41,118.598 200.606,113.805 195.422,114.49 195.031,118.891 			"/>
			<polygon class="st5" points="193.286,116.542 195.031,118.891 195.422,114.49 193.661,110.871 			"/>
			<polygon class="st5" points="199.373,110.572 201.129,113.967 201.07,118.357 206.163,117.888 206.806,112.972 204.816,109.343 
							"/>
			<path class="st5" d="M244.93,101.403c0,0-0.14,1.02-0.42,2.39c-0.43,2.12-1.2,5.1-2.33,6.54c0,0-1.49,7.07-1.27,7.96
				c0,0-5.16-1.05-9.5-2.98c-0.57-0.25-1.13-0.53-1.66-0.81c0,0-0.1,0.01-0.3,0.02c-1.09,0.05-5.02,0.09-10.49-1.74
				c0,0,0.61-2.74,1.43-6.16c0.37-1.53,0.78-3.2,1.2-4.82c0.35-1.35,0.7-2.66,1.03-3.83c0.7-2.46,1.33-4.29,1.69-4.46
				c0,0,12.73,4.39,17.64,5.06C241.95,98.573,244.04,99.313,244.93,101.403z"/>
			<g class="st3">
				<path class="st4" d="M255.222,119.184l-6.506-1.735c0,0-3.47-0.759-4.554,1.952c-1.084,2.711-20.711,35.783-20.711,35.783
					s-2.277,3.687,3.578,5.53c5.855,1.843,93.893,29.162,93.893,29.162s7.046,4.11,8.367-0.587s12.624-43.45,12.624-43.45
					s0.881-2.495-2.936-3.67l-7.34-2.202l-0.44,1.468l-76.918-20.991L255.222,119.184z"/>
				<path class="st4" d="M358.11,82.323l-12.73,48.31v0.01l-2.75,10.44c0,0-0.12,2.44-2.56,1.16l-92.26-25.25
					c0,0-1.63,0.47-1.05-3.02l1.66-9.13l2.75-15.11l0.08-0.44l5.63-30.94c0,0,0.06-1.37,1.46-2c0.33-0.16,0.72-0.27,1.21-0.31h0.01
					c0.16-0.02,0.33-0.03,0.51-0.03c0.13,0,0.27,0.01,0.42,0.02l73.18,16.56l21.41,4.84c0,0,0.62,0.19,1.31,0.63
					c0.2,0.12,0.4,0.26,0.6,0.43c0.1,0.08,0.2,0.17,0.29,0.27C358.06,79.533,358.64,80.693,358.11,82.323z"/>
				<polygon class="st4" points="261.232,61.869 351.23,82.712 338.098,135.603 252.147,112.268 				"/>
			</g>
			<path class="st5" d="M173.281,145.781c0,0,8.541-2.378,11.892-0.973c0,0,2.595-2.378,4.865-1.946c0,0,3.459-1.514,6.054-0.973
				c0,0,4.324-1.622,6.703-0.649c0,0,5.297-2.595,6.27,0.865l1.73,2.595c0,0,2.703-2.378,4.757-1.622c0,0,5.189-4.324,7.027-2.487
				c0,0,9.569,8.345,9.955,29.541c0.004,0.21,0.137,2.155-0.779,2.805c-2.213,1.571-7.984,2.414-12.418,2.032
				c0,0-1.609,2.125-6.077,2.592c0,0-10.443,8.313-13.404,6.858c-2.961-1.455-44.666-16.868-44.666-16.868l13.648-20.816
				L173.281,145.781z"/>
			<g class="st3">
				<path class="st4" d="M220.36,82.493c-0.41,5.72-0.7,11.13-0.64,14.71c0.06,3.42,0.43,5.17,1.31,3.95c0,0,0.31,0.2,0.56,0.65
					c0.45,0.79,0.74,2.33-1.2,4.82c-0.27,0.36-0.59,0.74-0.97,1.14l-3.12,4.66l-0.88,1.33l-0.05,0.07l-0.59-1.54l-0.51-1.3
					l-0.17-0.46l-3.07-7.95l-0.34-0.87l-0.67-1.74l-0.36-0.93l-0.9-2.34l-1.04-2.69l-11.3-29.28l-2.54-6.6l-1.51-3.9
					c0,0,0.01-0.03,0.05-0.1v-0.01c0.03-0.07,0.08-0.18,0.16-0.32c0,0,0,0,0-0.01c0.02-0.04,0.05-0.08,0.07-0.12
					c0.09-0.17,0.21-0.37,0.36-0.6c0.01-0.02,0.02-0.04,0.04-0.06c0.08-0.13,0.17-0.27,0.28-0.41c0.1-0.15,0.21-0.3,0.33-0.46
					c0.12-0.15,0.24-0.31,0.37-0.48c0.08-0.09,0.16-0.19,0.24-0.28c0.08-0.09,0.15-0.19,0.24-0.28c0.16-0.19,0.33-0.38,0.52-0.58
					c0.09-0.1,0.19-0.2,0.29-0.3c0.69-0.71,1.53-1.48,2.55-2.29c0.15-0.12,0.3-0.23,0.45-0.35c0.15-0.12,0.31-0.23,0.47-0.35
					l5.94,1.24l3.58,0.75l6.27,1.31l4.84,1.01c0,0,4.71,0.54,3.37,4.99c0,0-0.86,7.73-1.66,16.79c-0.16,1.67-0.31,3.39-0.45,5.11
					c-0.1,1.3-0.21,2.61-0.3,3.9C220.37,82.383,220.37,82.433,220.36,82.493z"/>
				<path class="st4" d="M197.572,51.264l18.472,4.18c0,0,4.719,0.539,3.101,6.202c0,0-6.742,50.698-4.45,50.563
					c0,0,2.023,1.618-0.674,3.236l-28.72-8.09l5.933-52.586L197.572,51.264z"/>
				<path class="st4" d="M197.553,53.642l16.964,3.596c0,0,3.78-0.369,1.844,6.454l-3.227,30.424c0,0-0.277,4.149-3.319,2.858
					l-20.283-5.347l4.702-36.232L197.553,53.642z"/>
				<path class="st4" d="M197.547,99.619l12.726,3.026c0,0,1.785,0.233,1.862-1.63c0.078-1.862-1.862-1.785-1.862-1.785
					l-0.466-0.155l-13.89-3.725l-2.173,2.949L197.547,99.619z"/>
				<ellipse class="st4" cx="200.786" cy="98.499" rx="0.727" ry="0.843"/>
				<ellipse class="st4" cx="205.523" cy="99.574" rx="0.814" ry="0.988"/>
				<ellipse class="st4" cx="210.182" cy="100.935" rx="0.814" ry="0.988"/>
			</g>
			<path class="st5" d="M84.129,120.781l-8.809,0.191c0,0-0.383-0.766-2.106,0.957c0,0-16.469,4.404-20.298,20.49
				c0,0-9.958,39.831-5.553,57.64c0,0-0.957,16.277-11.107,44.044c0,0-1.532,13.213-1.532,28.533c0,0-2.872,13.596-2.681,16.852
				c0,0-9.958,13.022-10.149,16.086c-0.191,3.064,169.856-1.34,169.856-1.34s5.745-8.234,2.681-20.49l-0.191-11.681l6.319-1.34
				c0,0,7.851,1.915,11.107,2.298c3.255,0.383,11.107,3.83,11.107,3.83s33.32,1.723,36.001-12.639c0,0,8.234-18.575,8.426-22.979
				c0,0,7.468-2.872,9.958-9c0,0,9.766-16.852,6.511-31.597l-0.204-1.473c0,0,2.903-1.684,1.451-8.302
				c0,0-2.206-8.302-13.643-11.669c0,0-9.985-2.09-14.978,5.747c0,0-16.545,5.805-19.506,20.957c0,0-3.715,3.135-4.064,5.051
				c-0.348,1.916-0.174-0.058-0.174-0.058s-2.787-1.567-4.644-0.232c0,0,4.847-6.999-9.631-9.412c0,0-0.49-1.595-0.804-3.677
				c-0.387-2.558-0.983-5.85-5.86-7.814c0,0-0.752-0.752-1.609-1.953c-1.355-1.899-3.427-4.496-6.665-3.792
				c0,0-2.298-3.677-2.758-5.975c0,0,0.689-1.724-8.618-2.068c-9.307-0.345-11.95-3.447-11.95-3.447s-5.515-1.034-7.814,0.345
				c0,0-3.65-6.704-6.293-8.466c0,0,9.081-7.609,6.987-17.816c0,0,26.171-32.452,24.601-48.155c0,0,7.851-29.312-12.562-58.1
				c0,0-3.664-7.59-13.347-10.73c0,0-3.456-6.105-17.396,1.639c0,0-30.203,8.364-37.483,17.502c0,0-15.799,12.236-18.432,17.657
				c0,0-8.364,11.926-7.899,16.418c0,0-5.886,12.391-5.111,15.024C85.262,97.838,78.039,107.171,84.129,120.781z"/>
			<path class="st5" d="M169.47,103.046c0,0-18.809,12.441-5.48,28.584c0,0,9.182,7.553,17.773-0.444c0,0,8.59-4.887,7.109-14.218
				c0,0,0.067-8.449-6.45-9.042c0,0-12.359-47.979-33.242-64.418c0,0-14.218-14.366-28.288-5.924c0,0-7.553,0.741-11.256,11.256
				c0,0-0.296,1.037,1.333,1.333l-0.111,1.038c0,0-2.295,0.373-1.894,3.758l11.369-9.535c0,0,0.604-2.73,2.295-3.89
				C122.628,41.545,139.455,38.39,169.47,103.046z"/>
			<g class="st3">
				<path class="st4" d="M206.89,120.068c0,0-3.288,3.138-0.747,5.529c0,0,4.434,2.291,7.173-0.149c0,0,3.338-7.622,3.736-9.764
					c0.399-2.142-8.17,2.74-8.17,2.74L206.89,120.068z"/>
				<path class="st4" d="M216.753,113.443c0,0-1.196-4.583-6.675-2.79c0,0-3.736-0.149-4.384,8.518c0,0,0.648,2.391,7.024,0.897
					c0,0,2.192-3.935,3.736-3.487l0.598-0.897C217.052,115.684,217.251,114.688,216.753,113.443z"/>
				<path class="st4" d="M207.488,120.218l0.1,2.391c0,0,1.445,0.747,3.387,0.05l0.059-2.66L207.488,120.218z"/>
				<polygon class="st4" points="213.91,118.278 210.975,122.659 211.034,119.998 				"/>
			</g>
			<path class="st5" d="M265.255,179.329c0,0-2.14-6.866-2.14-9.987c0-3.121-0.092-0.016-0.092-0.016s-0.081-2.536-0.62-3.426
				c0,0-0.054-1.511,1.322-4.964c1.376-3.453,0.89-3.723,0.89-3.723s0.108-1.43,1.16-1.888c1.052-0.459,0.62-1.214,3.426-1.322
				c0,0,1.673-1.052,2.239-1.915c0,0,2.833-0.755,2.536,2.725c-0.297,3.48-2.158,3.507-2.158,3.507s-0.027,3.264-0.405,3.831
				c0,0-0.054,0.432,1.268-0.567c1.322-0.998,8.956-8.768,8.956-8.768s-0.459-1.43,0.351-2.185c0.809-0.755,4.155-4.856,8.174,0.863
				c0,0,2.212-0.701,4.451,0c2.239,0.701,4.424,3.048,3.291,5.584c0,0,3.858,2.806,2.967,5.908c0,0,3.814,2.041,2.046,4.718
				c0,0,0.051,1.919-4.899,7.626c0,0-6.212,11.565-11.312,12.928c-5.101,1.364-0.202-0.051-0.202-0.051s-1.869,0.556-2.02,1.616
				C284.334,190.884,265.255,179.329,265.255,179.329z"/>
			<path class="st5" d="M221.738,140.203c0,0,4.614-3.762,4.715-4.715c0,0,2.508-2.207,3.411-3.16c0,0,1.204-0.502,3.26,1.154
				c0,0,3.962-2.708,5.016-2.508c1.053,0.201,2.207,0.451,3.16,2.006c0,0,3.259-2.301,5.514,0.454
				c0.052,0.063,0.103,0.129,0.154,0.198c2.257,3.06,5.467,3.962,5.016,8.577c0,0,3.411,2.608,3.611,5.066c0,0,2.006,3.561,0,3.812
				c0,0-1.655,1.103-3.712-1.555s-2.909-4.013-4.464-4.313c-1.555-0.301-1.505,0.451-4.013,0.401s-0.251-0.1-0.251-0.1
				s-5.266,1.354-4.915,4.213c0,0-0.1,2.357-0.602,2.759c-0.502,0.401,0.752,0.953,0.752,0.953s4.865-1.505,6.219-1.254
				c0,0,0.251-1.103,3.762-1.605c3.511-0.502,4.013,1.204,4.013,1.204s1.655,2.859-1.204,3.762c0,0-3.06,2.006-3.611,3.11
				c0,0-1.003,0.803-3.411,0.803c0,0-6.119,1.605-5.969,2.508c0,0-2.107,0.502-6.27-1.555l-2.608-2.408L221.738,140.203z"/>
			<g class="st3">
				<path class="st4" d="M300.092,188.238l-5.45,30.423c0,0-0.406,9.703,11.651,12.718c2.247,0.562,6.233,0.914,8.519,0.281
					c7.77-2.153,6.647-2.153,10.219-5.83l7.056-26.885c0,0,2.676-10.341-11.314-15.45c0,0-4.501-1.338-6.083-1.338
					c0,0-5.109-3.528-7.299,0.487C307.391,182.642,302.403,183.98,300.092,188.238C297.781,192.495,300.092,188.238,300.092,188.238
					z"/>
				
					<ellipse transform="matrix(0.2777 -0.9607 0.9607 0.2777 41.883 444.0447)" class="st4" cx="316.234" cy="194.17" rx="10.64" ry="15.961"/>
			</g>
			<g class="st3">
				<path class="st4" d="M357.237,201.898l-4.05,18.024c0,0-0.203,1.62,4.253,2.835c4.455,1.215,24.302,8.303,24.302,8.303
					l9.008-18.583L357.237,201.898z"/>
				<path class="st4" d="M392.805,181.489l-4.884-1.414l-20.806-6.022c0,0-2.626-1.244-3.041,2.073
					c-0.415,3.317-5.943,24.188-5.943,24.188s-1.935,2.764,3.179,4.561c5.114,1.797,27.92,8.569,27.92,8.569s0.553,1.52,1.52-0.968
					c0.967-2.488,4.699-28.473,4.699-28.473S396.38,182.014,392.805,181.489z"/>
				<path class="st4" d="M381.944,210.403l5.976-30.328l-20.806-6.022c0,0-2.685-0.004-3.041,2.073
					c-0.356,2.077-5.943,24.188-5.943,24.188s-1.052,3.083,3.179,4.561S381.944,210.403,381.944,210.403z"/>
			</g>
			<g class="st3">
				<path class="st4" d="M400.621,65.491c0,0,16.2-20.479,48.645-4.049c0,0,11.647,7.903,6.031,16.638
					c0,0-14.574,36.673-36.412,44.576l-0.474,3.795c0,0-1.898,2.491-6.049-0.712l0.237-4.27c0,0-6.997-8.065-9.488-17.316
					C403.111,104.155,399.263,91.191,400.621,65.491z"/>
				<path class="st4" d="M403.133,105.006c0,0,10.549,12.538,30.696,7.263c0,0-8.962,9.016-14.944,10.388l-0.474,3.795
					c0,0-1.316,2.47-6.049-0.712l0.237-4.27C412.599,121.471,404.17,110.886,403.133,105.006z"/>
				<path class="st4" d="M413.516,107.915c0,0,4.463-2.605,4.857,2.51c0,0-7.871,11.117-11.412,36.106
					c0,0-3.935,22.628-7.182,30.302l-6.69,20.464c0,0-3.148,1.082-3.935-1.869c-0.787-2.951,10.625-30.695,11.216-39.353
					c0,0,1.511-7.255,2.553-14.775C402.921,141.3,405.253,125.666,413.516,107.915z"/>
				<path class="st4" d="M401.768,65.773c0,0,19.298,21.808,53.657,11.453c0,0,8.001-12.394-16.787-19.925
					c0,0-20.493-8.565-38.017,8.19L401.768,65.773z"/>
			</g>
		</g>
	</g>
</g>
</svg>