<!-- Generator: Adobe Illustrator 22.0.1, SVG Export Plug-In  -->
<svg version="1.1"
	 xmlns="http://www.w3.org/2000/svg" xmlns:xlink="http://www.w3.org/1999/xlink" xmlns:a="http://ns.adobe.com/AdobeSVGViewerExtensions/3.0/"
	 x="0px" y="0px" width="251.567px" height="226.982px" viewBox="0 0 251.567 226.982"
	 style="enable-background:new 0 0 251.567 226.982;" xml:space="preserve">
<style type="text/css">
	.st0{fill:#FFFFFF;}
	.st1{opacity:0.8;fill:#FFFFFF;stroke:#000000;stroke-miterlimit:10;}
	.st2{fill:#FFFFFF;stroke:#000000;stroke-miterlimit:10;}
	.st3{opacity:0.6;}
	.st4{opacity:0.8;fill:#FFFFFF;stroke:#000000;stroke-width:1.0008;stroke-miterlimit:10;}
	.st5{fill:#C22B2B;}
</style>
<defs>
</defs>
<g>
	<rect x="225.979" y="51.271" class="st0" width="25.588" height="24.763"/>
	<g>
		<polygon class="st1" points="46.955,44.957 69.811,99.793 226.723,100.695 226.723,10.695 		"/>
		<polygon class="st1" points="36.955,44.957 59.811,99.793 1.194,189.973 		"/>
		<polygon class="st2" points="69.811,119.793 226.723,120.695 175.321,209.973 11.194,209.973 		"/>
		<g class="st3">
			<polygon class="st2" points="69.811,109.793 55.157,132.338 40.503,154.883 11.194,199.973 93.258,199.973 175.321,199.973 
				201.022,155.334 226.723,110.695 148.267,110.244 			"/>
			<polygon class="st2" points="146.758,105.296 69.872,105.508 54.992,126.862 40.111,148.215 14.224,191.168 93.58,192.206 
				174.526,193.925 200.227,149.286 225.928,104.648 186.343,104.972 			"/>
			<polygon class="st2" points="145.249,100.798 69.933,101.674 54.826,121.836 39.72,141.998 17.254,182.814 93.903,184.89 
				173.731,188.328 199.432,143.69 225.134,99.051 185.191,99.924 			"/>
			<polygon class="st2" points="143.74,96.3 69.994,97.839 54.661,116.81 39.328,135.781 20.284,174.46 94.226,177.574 
				172.937,182.732 198.638,138.093 224.339,93.454 184.039,94.877 			"/>
			<polygon class="st2" points="142.231,91.802 70.055,94.005 54.496,111.784 38.936,129.563 23.314,166.106 94.548,170.258 
				172.142,177.135 197.843,132.496 223.544,87.857 182.887,89.829 			"/>
			<polygon class="st2" points="140.722,87.304 70.116,90.17 54.33,106.758 38.545,123.346 26.343,157.752 94.871,162.942 
				171.347,171.538 197.048,126.899 222.749,82.26 181.736,84.782 			"/>
			<polygon class="st2" points="139.213,82.806 70.177,86.336 54.165,101.732 38.153,117.129 29.373,149.398 95.194,155.626 
				170.552,165.941 196.253,121.302 221.954,76.663 180.584,79.735 			"/>
			<polygon class="st2" points="137.704,78.308 70.238,82.501 54,96.707 37.762,110.912 32.403,141.044 95.517,148.31 
				169.757,160.344 195.459,115.705 221.16,71.067 179.432,74.687 			"/>
			<polygon class="st2" points="136.195,73.81 70.299,78.667 53.835,91.681 37.37,104.695 35.433,132.69 95.839,140.993 
				168.963,154.747 194.664,110.109 220.365,65.47 178.28,69.64 			"/>
			<polygon class="st2" points="135.428,69.312 71.102,74.832 54.411,86.655 37.721,98.477 39.205,124.336 96.904,133.677 
				168.91,149.151 194.611,104.512 220.312,59.873 177.87,64.592 			"/>
			<polygon class="st2" points="135.629,64.814 72.874,70.998 55.957,81.629 39.04,92.26 43.945,115.982 98.937,126.361 
				169.826,143.554 195.527,98.915 221.228,54.276 178.429,59.545 			"/>
			<polygon class="st2" points="135.831,60.316 74.645,67.164 57.502,76.603 40.359,86.043 48.686,107.628 100.971,119.045 
				170.742,137.957 196.443,93.318 222.144,48.679 178.987,54.498 			"/>
			<polygon class="st2" points="136.032,55.818 76.417,63.329 59.048,71.577 41.678,79.826 53.426,99.274 103.004,111.729 
				171.657,132.36 197.359,87.721 223.06,43.083 179.546,49.45 			"/>
			<polygon class="st2" points="136.234,51.32 78.189,59.495 60.593,66.552 42.997,73.609 58.167,90.92 105.038,104.413 
				172.573,126.763 198.274,82.125 223.976,37.486 180.105,44.403 			"/>
			<polygon class="st2" points="136.436,46.822 79.96,55.66 62.138,61.526 44.316,67.391 62.907,82.565 107.071,97.097 
				173.489,121.167 199.19,76.528 224.891,31.889 180.664,39.355 			"/>
			<polygon class="st2" points="136.637,42.324 81.732,51.826 63.684,56.5 45.636,61.174 67.648,74.211 109.104,89.781 
				174.405,115.57 200.106,70.931 225.807,26.292 181.222,34.308 			"/>
			<polygon class="st2" points="46.955,54.957 111.138,82.465 175.321,109.973 201.022,65.334 226.723,20.695 181.781,29.261 
				136.839,37.826 			"/>
		</g>
		<polygon class="st1" points="185.321,198.973 185.321,108.973 236.723,19.695 236.723,109.695 		"/>
		<polygon class="st4" points="1.194,209.973 36.955,64.957 165.321,119.973 165.321,209.973 		"/>
		<polygon class="st1" points="46.955,34.957 175.321,89.973 226.723,0.695 		"/>
		<g>
			<path class="st5" d="M1.78,226.883v-11.819h1.627l2.174,6.259h0.033l2.158-6.259h1.643v11.819H7.723v-7.188H7.689l-1.677,5.079
				H5.166l-1.66-5.079H3.473v7.188H1.78z"/>
			<path class="st5" d="M11.059,226.883v-11.819h1.693v11.819H11.059z"/>
			<path class="st5" d="M19.774,223.513v0.73c0,0.365-0.069,0.712-0.208,1.038c-0.139,0.326-0.33,0.617-0.573,0.871
				c-0.244,0.255-0.529,0.457-0.855,0.606c-0.327,0.148-0.678,0.224-1.054,0.224c-0.321,0-0.647-0.044-0.979-0.133
				c-0.332-0.089-0.631-0.243-0.896-0.465s-0.484-0.506-0.656-0.854c-0.172-0.349-0.257-0.794-0.257-1.337v-6.507
				c0-0.388,0.066-0.747,0.199-1.079s0.321-0.62,0.564-0.863c0.243-0.243,0.534-0.435,0.872-0.572
				c0.337-0.139,0.711-0.208,1.12-0.208c0.797,0,1.444,0.261,1.942,0.78c0.243,0.255,0.434,0.557,0.573,0.904
				c0.138,0.349,0.208,0.729,0.208,1.138v0.664h-1.693v-0.564c0-0.332-0.094-0.62-0.282-0.863s-0.443-0.365-0.764-0.365
				c-0.42,0-0.7,0.13-0.838,0.39c-0.138,0.261-0.207,0.59-0.207,0.988v6.042c0,0.344,0.075,0.631,0.224,0.863
				c0.149,0.232,0.418,0.349,0.805,0.349c0.111,0,0.229-0.02,0.357-0.058c0.127-0.039,0.246-0.103,0.357-0.191
				c0.1-0.088,0.183-0.21,0.249-0.365c0.066-0.154,0.1-0.349,0.1-0.581v-0.581H19.774z"/>
			<path class="st5" d="M21.152,226.883v-11.819h1.693v5.063h2.091v-5.063h1.693v11.819h-1.693v-5.262h-2.091v5.262H21.152z"/>
			<path class="st5" d="M27.459,226.883l2.639-11.819h1.411l2.64,11.819h-1.693l-0.498-2.54h-2.307l-0.498,2.54H27.459z
				 M31.643,222.749l-0.83-4.282h-0.033l-0.83,4.282H31.643z"/>
			<path class="st5" d="M34.979,226.883v-11.819h5.046v1.594h-3.353v3.47h2.921v1.593h-2.921v3.47h3.353v1.693H34.979z"/>
			<path class="st5" d="M41.122,226.883v-11.819h1.693v10.126h3.353v1.693H41.122z"/>
			<path class="st5" d="M49.588,226.883l2.64-11.819h1.411l2.639,11.819h-1.692l-0.498-2.54h-2.308l-0.498,2.54H49.588z
				 M53.771,222.749l-0.83-4.282h-0.033l-0.83,4.282H53.771z"/>
			<path class="st5" d="M57.041,226.883v-11.819h1.627l2.557,7.121h0.033v-7.121h1.692v11.819h-1.593l-2.59-7.104h-0.033v7.104
				H57.041z"/>
			<path class="st5" d="M64.378,217.852c0-0.476,0.083-0.896,0.249-1.262s0.387-0.67,0.664-0.913
				c0.266-0.232,0.566-0.409,0.904-0.531c0.338-0.121,0.678-0.183,1.021-0.183c0.343,0,0.683,0.062,1.021,0.183
				c0.338,0.122,0.645,0.299,0.921,0.531c0.266,0.243,0.481,0.548,0.647,0.913s0.249,0.786,0.249,1.262v0.598h-1.692v-0.598
				c0-0.409-0.114-0.711-0.341-0.905c-0.227-0.193-0.495-0.29-0.805-0.29c-0.311,0-0.579,0.097-0.806,0.29
				c-0.227,0.194-0.34,0.496-0.34,0.905v6.241c0,0.41,0.113,0.712,0.34,0.905s0.495,0.29,0.806,0.29c0.31,0,0.578-0.097,0.805-0.29
				s0.341-0.495,0.341-0.905v-2.225h-1.345v-1.493h3.037v3.718c0,0.498-0.083,0.925-0.249,1.278
				c-0.166,0.354-0.382,0.647-0.647,0.88c-0.276,0.243-0.583,0.426-0.921,0.548s-0.678,0.183-1.021,0.183
				c-0.344,0-0.684-0.061-1.021-0.183s-0.639-0.305-0.904-0.548c-0.277-0.232-0.498-0.525-0.664-0.88
				c-0.166-0.354-0.249-0.78-0.249-1.278V217.852z"/>
			<path class="st5" d="M71.549,226.883v-11.819h5.046v1.594h-3.353v3.47h2.921v1.593h-2.921v3.47h3.353v1.693H71.549z"/>
			<path class="st5" d="M77.69,226.883v-11.819h1.693v10.126h3.353v1.693H77.69z"/>
			<path class="st5" d="M86.92,226.883v-11.819h2.723c1.991,0,2.987,1.156,2.987,3.47c0,0.697-0.107,1.289-0.323,1.776
				c-0.216,0.486-0.595,0.88-1.137,1.179l1.825,5.395h-1.792l-1.577-5.047h-1.013v5.047H86.92z M88.613,216.657v3.686h0.963
				c0.299,0,0.536-0.042,0.714-0.125c0.177-0.083,0.315-0.201,0.415-0.356c0.088-0.155,0.149-0.346,0.183-0.573
				c0.033-0.227,0.05-0.489,0.05-0.788s-0.017-0.562-0.05-0.789c-0.033-0.227-0.1-0.423-0.199-0.589
				c-0.211-0.31-0.609-0.465-1.195-0.465H88.613z"/>
			<path class="st5" d="M94.041,226.883v-11.819h1.693v11.819H94.041z"/>
			<path class="st5" d="M103.121,215.063l-2.423,11.819h-1.494l-2.407-11.819h1.793l1.345,8.25h0.033l1.361-8.25H103.121z"/>
			<path class="st5" d="M102.756,226.883l2.64-11.819h1.411l2.639,11.819h-1.692l-0.498-2.54h-2.308l-0.498,2.54H102.756z
				 M106.939,222.749l-0.83-4.282h-0.033l-0.83,4.282H106.939z"/>
			<path class="st5" d="M115.753,218.467h-1.692v-0.382c0-0.388-0.092-0.723-0.274-1.005s-0.489-0.423-0.921-0.423
				c-0.232,0-0.421,0.044-0.564,0.133c-0.145,0.089-0.261,0.199-0.349,0.332c-0.089,0.144-0.149,0.307-0.183,0.489
				s-0.05,0.374-0.05,0.573c0,0.232,0.008,0.426,0.024,0.581s0.059,0.293,0.125,0.415s0.163,0.227,0.29,0.315
				s0.302,0.177,0.523,0.266l1.295,0.515c0.376,0.144,0.681,0.312,0.912,0.506c0.232,0.193,0.415,0.418,0.548,0.673
				c0.122,0.265,0.205,0.566,0.249,0.904c0.045,0.338,0.066,0.722,0.066,1.153c0,0.498-0.05,0.961-0.149,1.387
				s-0.26,0.788-0.481,1.087c-0.232,0.31-0.536,0.554-0.912,0.73c-0.377,0.177-0.836,0.266-1.378,0.266
				c-0.41,0-0.792-0.072-1.146-0.216c-0.354-0.144-0.659-0.343-0.913-0.598c-0.255-0.254-0.457-0.551-0.606-0.888
				c-0.149-0.338-0.224-0.706-0.224-1.104v-0.631h1.693v0.531c0,0.311,0.091,0.59,0.273,0.839s0.49,0.373,0.922,0.373
				c0.287,0,0.512-0.041,0.672-0.124s0.285-0.202,0.374-0.357c0.088-0.154,0.141-0.34,0.157-0.556s0.025-0.457,0.025-0.723
				c0-0.31-0.012-0.564-0.033-0.764c-0.022-0.199-0.066-0.359-0.133-0.481c-0.078-0.121-0.181-0.221-0.308-0.299
				c-0.127-0.077-0.296-0.16-0.506-0.249l-1.212-0.497c-0.73-0.299-1.221-0.694-1.47-1.188c-0.249-0.492-0.373-1.109-0.373-1.851
				c0-0.442,0.061-0.863,0.183-1.262c0.121-0.398,0.304-0.741,0.548-1.029c0.232-0.287,0.528-0.518,0.888-0.688
				c0.359-0.172,0.789-0.258,1.287-0.258c0.42,0,0.805,0.078,1.153,0.232c0.349,0.155,0.65,0.36,0.904,0.614
				c0.51,0.531,0.764,1.14,0.764,1.826V218.467z"/>
			<path class="st5" d="M125.846,215.063l-2.423,11.819h-1.494l-2.407-11.819h1.793l1.345,8.25h0.033l1.361-8.25H125.846z"/>
			<path class="st5" d="M125.481,226.883l2.64-11.819h1.411l2.639,11.819h-1.692l-0.498-2.54h-2.308l-0.498,2.54H125.481z
				 M129.665,222.749l-0.83-4.282h-0.033l-0.83,4.282H129.665z"/>
			<path class="st5" d="M133.001,226.883v-11.819h1.693v10.126h3.353v1.693H133.001z"/>
			<path class="st5" d="M138.379,226.883l2.64-11.819h1.411l2.639,11.819h-1.692l-0.498-2.54h-2.308l-0.498,2.54H138.379z
				 M142.562,222.749l-0.83-4.282h-0.033l-0.83,4.282H142.562z"/>
			<path class="st5" d="M145.898,226.883v-11.819h2.507c0.974,0,1.712,0.266,2.216,0.797c0.503,0.531,0.755,1.284,0.755,2.258v5.527
				c0,1.107-0.269,1.923-0.805,2.449c-0.537,0.525-1.309,0.788-2.315,0.788H145.898z M147.592,216.657v8.632h0.78
				c0.476,0,0.813-0.118,1.013-0.356s0.299-0.611,0.299-1.121v-5.693c0-0.465-0.095-0.824-0.282-1.079
				c-0.188-0.255-0.531-0.382-1.029-0.382H147.592z"/>
			<path class="st5" d="M152.97,226.883v-11.819h5.046v1.594h-3.353v3.47h2.921v1.593h-2.921v3.47h3.353v1.693H152.97z"/>
			<path class="st5" d="M158.563,226.883v-1.494l3.188-8.731h-3.021v-1.594h4.863v1.345l-3.253,8.881h3.253v1.594H158.563z"/>
		</g>
	</g>
</g>
</svg>