<!-- Generator: Adobe Illustrator 22.0.1, SVG Export Plug-In  -->
<svg version="1.1"
	 xmlns="http://www.w3.org/2000/svg" xmlns:xlink="http://www.w3.org/1999/xlink" xmlns:a="http://ns.adobe.com/AdobeSVGViewerExtensions/3.0/"
	 x="0px" y="0px" width="197.811px" height="116.678px" viewBox="0 0 197.811 116.678"
	 style="enable-background:new 0 0 197.811 116.678;" xml:space="preserve">
<style type="text/css">
	.st0{fill:none;stroke:#721012;}
</style>
<defs>
</defs>
<g>
	<path class="st0" d="M41.749,37.398c-0.54,1.48-1.29,2.72-2.25,3.72s-2.109,1.76-3.449,2.28s-2.811,0.78-4.41,0.78
		c-2.04,0-3.7-0.34-4.979-1.02c-1.28-0.68-2.38-1.54-3.3-2.58c-0.8-0.88-1.41-1.94-1.83-3.18c-0.42-1.24-0.73-2.62-0.93-4.14
		c-0.2-1.52-0.311-3.19-0.33-5.01c-0.021-1.82-0.03-3.79-0.03-5.91c0-2.08,0.01-4.04,0.03-5.88c0.02-1.84,0.13-3.52,0.33-5.04
		c0.199-1.52,0.51-2.89,0.93-4.11c0.42-1.22,1.03-2.29,1.83-3.209c0.92-1.04,2.02-1.9,3.3-2.58C27.939,0.84,29.6,0.5,31.64,0.5
		c1.68,0,3.14,0.25,4.38,0.75s2.32,1.21,3.24,2.13c1.04,1.08,1.829,2.38,2.369,3.9s0.851,3.2,0.931,5.04h-6.72
		c0-0.6-0.051-1.24-0.15-1.92c-0.1-0.68-0.3-1.3-0.6-1.86s-0.73-1.03-1.29-1.41c-0.561-0.38-1.28-0.57-2.16-0.57
		c-0.8,0-1.45,0.15-1.95,0.45S28.78,7.7,28.46,8.18c-0.64,1.04-1.05,2.68-1.23,4.92c-0.18,2.24-0.27,5.32-0.27,9.24
		c0,3.919,0.09,7,0.27,9.239c0.181,2.24,0.591,3.88,1.23,4.92c0.32,0.48,0.729,0.87,1.229,1.17s1.15,0.45,1.95,0.45
		c1.44,0,2.5-0.54,3.18-1.62c0.681-1.08,1.021-2.36,1.021-3.84v-6.66h-4.2v-5.52h10.92v11.82
		C42.56,34.219,42.289,35.918,41.749,37.398z"/>
	<path class="st0" d="M59.179,26.179h-3.78v17.519h-6.72V0.98h10.8c3.92,0,6.72,0.99,8.399,2.97c1.681,1.98,2.521,5.19,2.521,9.63
		c0,2.64-0.341,4.9-1.021,6.78s-2,3.34-3.96,4.379l6.36,18.959h-7.021L59.179,26.179z M63.528,11.06c-0.1-0.8-0.29-1.5-0.57-2.1
		c-0.279-0.6-0.699-1.07-1.26-1.41c-0.56-0.34-1.279-0.51-2.16-0.51h-4.14v13.08h4.14c0.881,0,1.601-0.17,2.16-0.51
		c0.561-0.34,0.98-0.81,1.26-1.41c0.28-0.6,0.471-1.3,0.57-2.1c0.1-0.8,0.15-1.64,0.15-2.52S63.628,11.859,63.528,11.06z"/>
	<path class="st0" d="M92.718,35.239h-9.899l-1.68,8.459h-7.08l10.5-42.718h6.539l10.38,42.718h-7.02L92.718,35.239z M84.139,29.179
		h7.319l-3.66-17.879L84.139,29.179z"/>
	<path class="st0" d="M124.697,23.719c-1.641,2.2-4.48,3.3-8.52,3.3h-4.021v16.679h-6.72V0.98h10.74c3.88,0,6.68,1.04,8.399,3.12
		c1.72,2.08,2.58,5.359,2.58,9.839C127.157,18.259,126.337,21.519,124.697,23.719z M120.287,11.299c-0.1-0.84-0.29-1.57-0.57-2.189
		c-0.279-0.62-0.699-1.12-1.26-1.5c-0.56-0.38-1.279-0.57-2.16-0.57h-4.14v13.919h4.14c0.881,0,1.601-0.19,2.16-0.57
		c0.561-0.38,0.98-0.88,1.26-1.5c0.28-0.62,0.471-1.35,0.57-2.19c0.1-0.84,0.15-1.74,0.15-2.7S120.387,12.14,120.287,11.299z"/>
	<path class="st0" d="M148.037,24.979h-8.34v18.719h-6.72V0.98h6.72v17.999h8.34V0.98h6.72v42.718h-6.72V24.979z"/>
	<path class="st0" d="M161.957,0.98h6.72v42.718h-6.72V0.98z"/>
	<path class="st0" d="M196.036,37.608c-0.6,1.58-1.439,2.87-2.52,3.87c-0.96,0.88-2.03,1.55-3.21,2.01s-2.57,0.69-4.17,0.69
		c-2.04,0-3.7-0.34-4.979-1.02c-1.28-0.68-2.38-1.54-3.3-2.58c-0.8-0.88-1.41-1.93-1.83-3.15c-0.42-1.22-0.73-2.6-0.93-4.14
		c-0.2-1.54-0.311-3.21-0.33-5.01c-0.021-1.8-0.03-3.76-0.03-5.88c0-2.08,0.01-4.04,0.03-5.879c0.02-1.84,0.13-3.53,0.33-5.07
		c0.199-1.54,0.51-2.92,0.93-4.14c0.42-1.22,1.03-2.29,1.83-3.209c0.92-1.04,2.02-1.9,3.3-2.58c1.279-0.68,2.939-1.02,4.979-1.02
		c1.64,0,3.05,0.23,4.229,0.69c1.181,0.46,2.25,1.15,3.21,2.07c1.04,1,1.851,2.27,2.431,3.81c0.579,1.54,0.909,3.27,0.989,5.189
		h-6.72c-0.04-0.8-0.13-1.55-0.27-2.25c-0.141-0.7-0.391-1.33-0.75-1.89c-0.32-0.48-0.72-0.86-1.2-1.14
		c-0.479-0.28-1.12-0.42-1.92-0.42s-1.45,0.15-1.95,0.45s-0.909,0.69-1.229,1.17c-0.64,1.04-1.05,2.68-1.23,4.92
		c-0.18,2.24-0.27,5.32-0.27,9.24c0,3.919,0.09,7,0.27,9.239c0.181,2.24,0.591,3.88,1.23,4.92c0.32,0.48,0.729,0.87,1.229,1.17
		s1.15,0.45,1.95,0.45s1.45-0.14,1.95-0.42c0.5-0.28,0.91-0.66,1.229-1.14c0.36-0.56,0.61-1.2,0.75-1.92
		c0.141-0.72,0.23-1.48,0.271-2.28h6.72C196.977,34.279,196.637,36.028,196.036,37.608z"/>
	<path class="st0" d="M22.729,100.069c-0.021,1.779-0.13,3.42-0.33,4.92s-0.51,2.85-0.93,4.05c-0.42,1.199-1.03,2.239-1.83,3.119
		c-0.88,1-1.97,1.841-3.271,2.521c-1.3,0.68-2.97,1.02-5.01,1.02H0.5V72.98h10.859c2.04,0,3.71,0.34,5.01,1.02
		c1.301,0.68,2.391,1.521,3.271,2.521c0.8,0.88,1.41,1.92,1.83,3.119c0.42,1.2,0.729,2.55,0.93,4.05s0.31,3.141,0.33,4.92
		c0.02,1.78,0.03,3.69,0.03,5.73C22.76,96.378,22.749,98.289,22.729,100.069z M15.8,85.459c-0.16-2.12-0.561-3.68-1.2-4.68
		c-0.32-0.521-0.77-0.94-1.35-1.261c-0.58-0.319-1.271-0.479-2.07-0.479H7.22v30.599h3.96c0.8,0,1.49-0.16,2.07-0.479
		c0.58-0.32,1.029-0.74,1.35-1.261c0.64-1,1.04-2.579,1.2-4.739s0.24-5.12,0.24-8.88S15.96,87.58,15.8,85.459z"/>
	<path class="st0" d="M28.819,72.98h17.939v6.06h-11.22v12.119h9.66v6.061h-9.66v12.419h11.22v6.06H28.819V72.98z"/>
	<path class="st0" d="M72.648,109.458c-0.38,1.52-1.109,2.8-2.189,3.84c-0.88,0.84-2.011,1.52-3.391,2.04
		c-1.38,0.52-3.029,0.779-4.949,0.779c-3.64,0-6.4-0.939-8.28-2.819c-1.039-1.04-1.76-2.26-2.159-3.66
		c-0.4-1.399-0.601-3.24-0.601-5.52h6.72c0,1.16,0.08,2.109,0.24,2.85s0.48,1.39,0.96,1.95c0.32,0.319,0.73,0.59,1.23,0.81
		s1.13,0.33,1.89,0.33c1.479,0,2.56-0.399,3.239-1.2c0.44-0.52,0.74-1.149,0.9-1.89s0.24-1.689,0.24-2.85
		c0-1.12-0.05-2.061-0.15-2.82c-0.1-0.76-0.3-1.39-0.6-1.89s-0.71-0.93-1.23-1.29c-0.52-0.36-1.199-0.7-2.04-1.02l-5.1-2.101
		c-1.08-0.439-2-0.939-2.76-1.5c-0.76-0.56-1.37-1.25-1.83-2.069c-0.46-0.82-0.8-1.811-1.02-2.97c-0.22-1.16-0.33-2.561-0.33-4.2
		c0-1.92,0.29-3.649,0.87-5.189s1.45-2.83,2.609-3.87c0.92-0.8,1.99-1.43,3.21-1.89s2.59-0.69,4.11-0.69
		c3.319,0,5.88,0.86,7.68,2.58c1.12,1.08,1.899,2.39,2.34,3.93c0.439,1.54,0.66,3.33,0.66,5.37h-6.72c0-0.96-0.061-1.82-0.181-2.58
		s-0.399-1.42-0.84-1.979c-0.64-0.841-1.64-1.261-3-1.261c-0.68,0-1.25,0.11-1.71,0.33s-0.85,0.51-1.17,0.87
		c-0.76,0.88-1.14,2.28-1.14,4.2c0,0.88,0.04,1.62,0.12,2.22s0.25,1.109,0.51,1.53c0.26,0.42,0.62,0.789,1.08,1.109
		s1.07,0.62,1.83,0.9l5.039,2.04c1.28,0.52,2.341,1.1,3.181,1.739c0.84,0.641,1.5,1.42,1.979,2.34c0.48,0.92,0.82,2.021,1.021,3.3
		c0.199,1.28,0.3,2.82,0.3,4.62C73.219,106.079,73.028,107.938,72.648,109.458z"/>
	<path class="st0" d="M79.099,72.98h6.72v42.718h-6.72V72.98z"/>
	<path class="st0" d="M113.388,109.398c-0.54,1.48-1.29,2.72-2.25,3.72s-2.109,1.761-3.449,2.28c-1.34,0.521-2.811,0.78-4.41,0.78
		c-2.04,0-3.7-0.34-4.979-1.021c-1.28-0.68-2.38-1.54-3.3-2.579c-0.8-0.881-1.41-1.94-1.83-3.181c-0.42-1.239-0.73-2.619-0.93-4.14
		c-0.2-1.52-0.311-3.189-0.33-5.01c-0.021-1.82-0.03-3.79-0.03-5.909c0-2.08,0.01-4.04,0.03-5.88c0.02-1.84,0.13-3.521,0.33-5.04
		c0.199-1.521,0.51-2.89,0.93-4.11c0.42-1.22,1.03-2.289,1.83-3.209c0.92-1.04,2.02-1.9,3.3-2.58
		c1.279-0.681,2.939-1.021,4.979-1.021c1.68,0,3.14,0.25,4.38,0.75s2.32,1.21,3.24,2.13c1.04,1.08,1.829,2.38,2.369,3.9
		c0.54,1.52,0.851,3.199,0.931,5.039h-6.72c0-0.6-0.051-1.239-0.15-1.92c-0.1-0.68-0.3-1.3-0.6-1.859
		c-0.3-0.561-0.73-1.03-1.29-1.41c-0.561-0.38-1.28-0.57-2.16-0.57c-0.8,0-1.45,0.15-1.95,0.45s-0.909,0.69-1.229,1.17
		c-0.64,1.04-1.05,2.68-1.23,4.92c-0.18,2.24-0.27,5.32-0.27,9.24c0,3.919,0.09,6.999,0.27,9.239c0.181,2.24,0.591,3.88,1.23,4.92
		c0.32,0.479,0.729,0.87,1.229,1.17s1.15,0.45,1.95,0.45c1.44,0,2.5-0.54,3.18-1.62c0.681-1.08,1.021-2.36,1.021-3.84v-6.66h-4.2
		v-5.52h10.92v11.819C114.198,106.218,113.928,107.918,113.388,109.398z"/>
	<path class="st0" d="M127.037,90.319v25.379h-6.72V72.98h6l10.02,25.379V72.98h6.72v42.718h-5.939L127.037,90.319z"/>
	<path class="st0" d="M150.257,72.98h17.939v6.06h-11.22v12.119h9.66v6.061h-9.66v12.419h11.22v6.06h-17.939V72.98z"/>
	<path class="st0" d="M184.517,98.179h-3.78v17.519h-6.72V72.98h10.8c3.92,0,6.72,0.989,8.399,2.97
		c1.681,1.979,2.521,5.189,2.521,9.63c0,2.64-0.341,4.899-1.021,6.779s-2,3.34-3.96,4.38l6.36,18.959h-7.021L184.517,98.179z
		 M188.866,83.059c-0.1-0.8-0.29-1.5-0.57-2.1c-0.279-0.6-0.699-1.07-1.26-1.41c-0.56-0.34-1.279-0.51-2.16-0.51h-4.14v13.079h4.14
		c0.881,0,1.601-0.17,2.16-0.51c0.561-0.34,0.98-0.81,1.26-1.41c0.28-0.6,0.471-1.3,0.57-2.1s0.15-1.64,0.15-2.52
		S188.966,83.859,188.866,83.059z"/>
</g>
</svg>